<svg width="16" height="16" viewBox="0 0 16 16" fill="none" xmlns="http://www.w3.org/2000/svg">
<rect x="0.394287" y="0.947144" width="14.8556" height="14.8556" rx="7.42778" fill="#F2F2F2"/>
<path d="M12.093 13.5125L8.62673 10.0462C8.31724 10.2938 7.96132 10.4898 7.55899 10.6342C7.15665 10.7786 6.72852 10.8508 6.2746 10.8508C5.15012 10.8508 4.19854 10.4613 3.41986 9.6822C2.64118 8.90311 2.25163 7.95153 2.25122 6.82746C2.25122 5.70297 2.64077 4.75139 3.41986 3.97271C4.19895 3.19404 5.15053 2.80449 6.2746 2.80408C7.39908 2.80408 8.35066 3.19362 9.12934 3.97271C9.90802 4.75181 10.2976 5.70339 10.298 6.82746C10.298 7.28138 10.2258 7.70951 10.0813 8.11184C9.93691 8.51418 9.7409 8.8701 9.4933 9.17959L12.9751 12.6614C13.0886 12.7748 13.1453 12.9141 13.1453 13.0792C13.1453 13.2442 13.0834 13.3887 12.9596 13.5125C12.8461 13.6259 12.7017 13.6827 12.5263 13.6827C12.3509 13.6827 12.2065 13.6259 12.093 13.5125ZM6.2746 9.61287C7.04833 9.61287 7.7061 9.34197 8.24791 8.80015C8.78973 8.25834 9.06043 7.60077 9.06002 6.82746C9.06002 6.05373 8.78911 5.39596 8.24729 4.85414C7.70548 4.31233 7.04791 4.04163 6.2746 4.04204C5.50087 4.04204 4.8431 4.31295 4.30129 4.85476C3.75947 5.39658 3.48877 6.05414 3.48918 6.82746C3.48918 7.60118 3.76009 8.25895 4.30191 8.80077C4.84372 9.34258 5.50129 9.61329 6.2746 9.61287Z" fill="#707070"/>
</svg>
